<?xml version="1.0" standalone="no"?>
<!DOCTYPE svg PUBLIC "-//W3C//DTD SVG 20010904//EN"
 "http://www.w3.org/TR/2001/REC-SVG-20010904/DTD/svg10.dtd">
<svg version="1.0" xmlns="http://www.w3.org/2000/svg"
 width="1200.000000pt" height="1200.000000pt" viewBox="0 0 1200.000000 1200.000000"
 preserveAspectRatio="xMidYMid meet">
<metadata>
Created by potrace 1.11, written by Peter Selinger 2001-2013
</metadata>
<g transform="translate(0.000000,1200.000000) scale(0.100000,-0.100000)"
fill="#000000" stroke="none">
<path d="M2720 10488 c-4 -24 0 -9930 3 -9935 6 -9 1163 -10 1172 -1 3 3 7
979 9 2169 2 1190 6 2175 8 2189 3 14 9 56 12 93 4 37 9 78 12 90 2 12 7 40
10 62 11 84 77 335 116 440 189 515 555 910 1028 1105 72 30 248 86 300 96 14
3 44 9 68 15 24 5 62 12 85 15 23 2 53 7 67 9 117 20 392 26 540 13 98 -8 242
-32 295 -48 17 -5 55 -17 85 -26 88 -26 228 -93 320 -153 106 -69 277 -238
348 -346 168 -252 276 -590 318 -995 3 -36 9 -78 12 -95 4 -23 12 -3001 12
-4460 l0 -180 567 2 c313 0 577 1 588 2 20 1 20 8 19 2268 -1 2011 -4 2432
-19 2548 -2 17 -7 66 -10 110 -3 44 -8 87 -10 95 -2 8 -6 38 -10 65 -3 28 -11
79 -16 115 -6 36 -13 79 -15 95 -12 74 -88 366 -125 476 -63 191 -170 424
-248 544 -14 22 -30 48 -36 56 -105 171 -295 375 -473 511 -290 220 -662 363
-1105 423 -194 26 -699 27 -834 1 -10 -2 -54 -9 -98 -16 -119 -17 -313 -66
-444 -112 -504 -177 -928 -511 -1289 -1016 l-81 -113 0 1933 c0 1063 0 1939
-1 1946 0 9 -125 12 -590 12 -324 0 -590 -1 -590 -2z"/>
</g>
</svg>
